# xmcd
#
# Track frame offsets: 
#        150
#        10289
#        21362
#        34151
#        46012
#        58422
#        68600
#        79343
#        89752
#        102169
#        113343
#        125342
#        137750
#        147605
#        158499
#        166958
#        174737
#        183791
#        194049
#        202403
#
# Disc length: 2855 seconds
#
# Revision: 2
# Processed by: cddbd v1.5.2PL0 Copyright (c) Steve Scherf et al.
# Submitted via: ExactAudioCopy v1.0b3
#
DISCID=200b2514
DTITLE=Johnny Cash - I walk the line [CD1)
DYEAR=1958
DGENRE=Country
TTITLE0=Hey Porter
TTITLE1=Cry, Cry, Cry
TTITLE2=Folsom Prisom Blues
TTITLE3=So Doggone Lonesome
TTITLE4=I Walk The Line
TTITLE5=Get Rythm
TTITLE6=Train Of Love
TTITLE7=There You Go
TTITLE8=Next In Line
TTITLE9=Don't Make Me Go
TTITLE10=Home Of The Blues
TTITLE11=Give My Love To The Rose
TTITLE12=Rock Island Lind
TTITLE13=I Heard That Lonesome Whistle
TTITLE14=Country Boy
TTITLE15=If The Good Lord's Willing
TTITLE16=Remember Me
TTITLE17=I Was There When It Happened
TTITLE18=Wreck Of The Old '97
TTITLE19=Doin' My Time
EXTD=
EXTT0=
EXTT1=
EXTT2=
EXTT3=
EXTT4=
EXTT5=
EXTT6=
EXTT7=
EXTT8=
EXTT9=
EXTT10=
EXTT11=
EXTT12=
EXTT13=
EXTT14=
EXTT15=
EXTT16=
EXTT17=
EXTT18=
EXTT19=
PLAYORDER=
